<svg width="36" height="36" viewBox="0 0 36 36" fill="none" xmlns="http://www.w3.org/2000/svg">
<path d="M27 3.6H34.2C34.6774 3.6 35.1352 3.78964 35.4728 4.12721C35.8104 4.46477 36 4.92261 36 5.4V34.2C36 34.6774 35.8104 35.1352 35.4728 35.4728C35.1352 35.8104 34.6774 36 34.2 36H1.8C1.32261 36 0.864773 35.8104 0.527208 35.4728C0.189642 35.1352 0 34.6774 0 34.2V5.4C0 4.92261 0.189642 4.46477 0.527208 4.12721C0.864773 3.78964 1.32261 3.6 1.8 3.6H9V0H12.6V3.6H23.4V0H27V3.6ZM23.4 7.2H12.6V10.8H9V7.2H3.6V14.4H32.4V7.2H27V10.8H23.4V7.2ZM32.4 18H3.6V32.4H32.4V18ZM7.2 23.4H10.8V27H7.2V23.4ZM14.4 23.4H28.8V27H14.4V23.4Z" fill="#1193F2"/>
</svg>
