<svg width="37" height="37" viewBox="0 0 37 37" fill="none" xmlns="http://www.w3.org/2000/svg">
<path d="M18.5 0C28.7176 0 37 8.28245 37 18.5C37 28.7176 28.7176 37 18.5 37C8.28245 37 0 28.7176 0 18.5C0 8.28245 8.28245 0 18.5 0ZM18.5 3.7C14.5748 3.7 10.8104 5.25928 8.03482 8.03482C5.25928 10.8104 3.7 14.5748 3.7 18.5C3.7 22.4252 5.25928 26.1896 8.03482 28.9652C10.8104 31.7407 14.5748 33.3 18.5 33.3C22.4252 33.3 26.1896 31.7407 28.9652 28.9652C31.7407 26.1896 33.3 22.4252 33.3 18.5C33.3 14.5748 31.7407 10.8104 28.9652 8.03482C26.1896 5.25928 22.4252 3.7 18.5 3.7ZM18.5 9.25C20.4473 9.25074 22.3447 9.866 23.9218 11.0081C25.499 12.1503 26.6755 13.761 27.2837 15.6109C27.8919 17.4607 27.9008 19.4553 27.3092 21.3106C26.7175 23.1658 25.5554 24.787 23.9885 25.9431C22.4216 27.0993 20.5298 27.7315 18.5826 27.7496C16.6354 27.7677 14.7321 27.1709 13.144 26.0441C11.5558 24.9173 10.3638 23.318 9.73767 21.4741C9.11156 19.6303 9.08333 17.6358 9.657 15.775C10.0898 16.742 10.8415 17.531 11.7865 18.01C12.7314 18.4891 13.8122 18.629 14.848 18.4065C15.8838 18.184 16.8117 17.6124 17.4765 16.7875C18.1413 15.9626 18.5026 14.9344 18.5 13.875C18.5002 12.9842 18.2432 12.1122 17.7598 11.3639C17.2764 10.6157 16.5871 10.023 15.775 9.657C16.6371 9.39245 17.551 9.25 18.5 9.25Z" fill="#1193F2"/>
</svg>
