<svg width="281" height="128" viewBox="0 0 281 128" fill="none" xmlns="http://www.w3.org/2000/svg">
<path d="M70.5793 38.6847L31.8768 -7.00579e-05L23.8169 8.05624C26.0679 10.2336 27.3749 13.282 27.2297 16.6932C26.9392 22.3544 22.3646 26.9269 16.7009 27.2172C13.2881 27.4349 10.1657 26.0559 8.05996 23.806L-2.80453e-06 31.8623L63.9715 96.0225L70.5793 89.4177C84.5935 75.4099 84.5935 52.6926 70.5793 38.6847Z" fill="#004B92"/>
<path d="M16.6859 100.782C22.2721 101.072 26.8426 105.639 27.2053 111.293C27.4229 114.701 26.0445 117.745 23.8681 119.92L31.9209 127.967L70.5887 89.3275C84.5903 75.336 84.5903 52.7178 70.5887 38.7263L63.9868 32.1293L47.1558 15.3106C56.1517 24.3 56.6595 39.3788 48.0264 48.0056L-1.39746e-06 95.997L8.05275 104.116C10.2292 101.869 13.2762 100.564 16.6859 100.782Z" fill="#139BFC" fill-opacity="0.9"/>
<path d="M121.134 40.3254C119.901 40.3254 118.868 39.9422 118.035 39.1759C117.236 38.3762 116.836 37.3933 116.836 36.2271C116.836 35.061 117.236 34.0947 118.035 33.3284C118.868 32.5287 119.901 32.1289 121.134 32.1289C122.367 32.1289 123.383 32.5287 124.183 33.3284C125.016 34.0947 125.432 35.061 125.432 36.2271C125.432 37.3933 125.016 38.3762 124.183 39.1759C123.383 39.9422 122.367 40.3254 121.134 40.3254ZM124.583 43.624V71.3121H117.586V43.624H124.583Z" fill="#004B92"/>
<path d="M155.235 36.4271V42.0746H145.939V71.3121H138.942V42.0746H129.646V36.4271H155.235Z" fill="#004B92"/>
<path d="M163.889 40.3254C162.656 40.3254 161.623 39.9422 160.791 39.1759C159.991 38.3762 159.591 37.3933 159.591 36.2271C159.591 35.061 159.991 34.0947 160.791 33.3284C161.623 32.5287 162.656 32.1289 163.889 32.1289C165.122 32.1289 166.138 32.5287 166.938 33.3284C167.771 34.0947 168.187 35.061 168.187 36.2271C168.187 37.3933 167.771 38.3762 166.938 39.1759C166.138 39.9422 165.122 40.3254 163.889 40.3254ZM167.338 43.624V71.3121H160.341V43.624H167.338Z" fill="#004B92"/>
<path d="M172.452 57.468C172.452 54.6026 173.035 52.1037 174.201 49.9713C175.367 47.8055 176.983 46.1396 179.049 44.9734C181.114 43.7739 183.48 43.1742 186.146 43.1742C189.578 43.1742 192.41 44.0405 194.642 45.7731C196.908 47.4723 198.424 49.8713 199.19 52.97H191.643C191.243 51.7705 190.56 50.8375 189.594 50.1712C188.661 49.4715 187.495 49.1216 186.096 49.1216C184.097 49.1216 182.514 49.8546 181.348 51.3207C180.182 52.7534 179.598 54.8025 179.598 57.468C179.598 60.1002 180.182 62.1494 181.348 63.6154C182.514 65.0481 184.097 65.7645 186.096 65.7645C188.928 65.7645 190.777 64.4984 191.643 61.9661H199.19C198.424 64.9648 196.908 67.3471 194.642 69.113C192.376 70.8789 189.544 71.7619 186.146 71.7619C183.48 71.7619 181.114 71.1788 179.049 70.0127C176.983 68.8132 175.367 67.1472 174.201 65.0148C173.035 62.8491 172.452 60.3335 172.452 57.468Z" fill="#004B92"/>
<path d="M220.709 71.3121L211.313 59.5172V71.3121H204.316V34.328H211.313V55.3689L220.609 43.624H229.705L217.51 57.518L229.805 71.3121H220.709Z" fill="#004B92"/>
<path d="M259.242 56.8683C259.242 57.8679 259.175 58.7675 259.042 59.5671H238.8C238.967 61.5663 239.667 63.1323 240.9 64.2651C242.132 65.398 243.648 65.9644 245.448 65.9644C248.046 65.9644 249.896 64.8482 250.995 62.6158H258.542C257.742 65.2814 256.21 67.4804 253.944 69.213C251.678 70.9123 248.896 71.7619 245.598 71.7619C242.932 71.7619 240.533 71.1788 238.401 70.0127C236.301 68.8132 234.652 67.1306 233.453 64.9648C232.287 62.7991 231.703 60.3002 231.703 57.468C231.703 54.6026 232.287 52.087 233.453 49.9213C234.619 47.7555 236.252 46.0896 238.351 44.9234C240.45 43.7573 242.865 43.1742 245.598 43.1742C248.23 43.1742 250.579 43.7406 252.644 44.8734C254.744 46.0063 256.36 47.6223 257.492 49.7214C258.659 51.7871 259.242 54.1695 259.242 56.8683ZM251.995 54.8692C251.961 53.0699 251.312 51.6372 250.046 50.571C248.779 49.4715 247.23 48.9217 245.398 48.9217C243.665 48.9217 242.199 49.4548 240.999 50.521C239.833 51.5539 239.117 53.0033 238.85 54.8692H251.995Z" fill="#004B92"/>
<path d="M272.495 49.3715V62.7658C272.495 63.6987 272.712 64.3817 273.145 64.8149C273.612 65.2147 274.378 65.4146 275.444 65.4146H278.693V71.3121H274.295C268.397 71.3121 265.448 68.4467 265.448 62.7158V49.3715H262.15V43.624H265.448V36.7769H272.495V43.624H278.693V49.3715H272.495Z" fill="#004B92"/>
<path d="M126.268 96.233L124.084 94.0496C123.55 94.1962 123.006 94.2695 122.451 94.2695C121.435 94.2695 120.508 94.0339 119.671 93.5627C118.833 93.081 118.168 92.4161 117.676 91.5679C117.194 90.7092 116.953 89.7458 116.953 88.6777C116.953 87.6095 117.194 86.6514 117.676 85.8032C118.168 84.9445 118.833 84.2795 119.671 83.8083C120.508 83.3266 121.435 83.0858 122.451 83.0858C123.477 83.0858 124.409 83.3266 125.247 83.8083C126.084 84.2795 126.744 84.9393 127.226 85.7875C127.708 86.6357 127.948 87.5991 127.948 88.6777C127.948 89.7248 127.718 90.6673 127.257 91.505C126.797 92.3428 126.163 93.0025 125.357 93.4842L128.121 96.233H126.268ZM118.414 88.6777C118.414 89.5468 118.587 90.3112 118.932 90.971C119.288 91.6307 119.77 92.1386 120.377 92.4946C120.995 92.8506 121.686 93.0287 122.451 93.0287C123.215 93.0287 123.901 92.8506 124.508 92.4946C125.126 92.1386 125.608 91.6307 125.954 90.971C126.31 90.3112 126.488 89.5468 126.488 88.6777C126.488 87.798 126.31 87.0336 125.954 86.3844C125.608 85.7246 125.132 85.2168 124.524 84.8607C123.917 84.5047 123.226 84.3267 122.451 84.3267C121.676 84.3267 120.985 84.5047 120.377 84.8607C119.77 85.2168 119.288 85.7246 118.932 86.3844C118.587 87.0336 118.414 87.798 118.414 88.6777Z" fill="#004B92"/>
<path d="M131.264 83.2114V90.1385C131.264 91.1123 131.5 91.8349 131.971 92.3061C132.453 92.7773 133.118 93.0129 133.966 93.0129C134.803 93.0129 135.458 92.7773 135.929 92.3061C136.411 91.8349 136.652 91.1123 136.652 90.1385V83.2114H138.081V90.1228C138.081 91.0338 137.898 91.8035 137.531 92.4318C137.165 93.0496 136.667 93.5104 136.039 93.814C135.421 94.1177 134.725 94.2695 133.95 94.2695C133.175 94.2695 132.474 94.1177 131.845 93.814C131.227 93.5104 130.735 93.0496 130.369 92.4318C130.013 91.8035 129.835 91.0338 129.835 90.1228V83.2114H131.264Z" fill="#004B92"/>
<path d="M141.895 84.3738V88.0337H145.885V89.2117H141.895V92.9815H146.356V94.1596H140.466V83.1957H146.356V84.3738H141.895Z" fill="#004B92"/>
<path d="M149.917 83.2114V90.1385C149.917 91.1123 150.152 91.8349 150.624 92.3061C151.105 92.7773 151.77 93.0129 152.618 93.0129C153.456 93.0129 154.111 92.7773 154.582 92.3061C155.064 91.8349 155.304 91.1123 155.304 90.1385V83.2114H156.734V90.1228C156.734 91.0338 156.551 91.8035 156.184 92.4318C155.818 93.0496 155.32 93.5104 154.692 93.814C154.074 94.1177 153.378 94.2695 152.603 94.2695C151.828 94.2695 151.126 94.1177 150.498 93.814C149.88 93.5104 149.388 93.0496 149.021 92.4318C148.665 91.8035 148.487 91.0338 148.487 90.1228V83.2114H149.917Z" fill="#004B92"/>
<path d="M160.548 84.3738V88.0337H164.537V89.2117H160.548V92.9815H165.009V94.1596H159.118V83.1957H165.009V84.3738H160.548Z" fill="#004B92"/>
<path d="M168.601 83.2114V94.1596H167.172V83.2114H168.601Z" fill="#004B92"/>
<path d="M179.645 94.1596H178.215L172.466 85.4419V94.1596H171.037V83.1957H172.466L178.215 91.8977V83.1957H179.645V94.1596Z" fill="#004B92"/>
<path d="M190.375 86.3844C190.071 85.7456 189.631 85.2534 189.056 84.9079C188.48 84.5518 187.809 84.3738 187.045 84.3738C186.281 84.3738 185.589 84.5518 184.972 84.9079C184.364 85.2534 183.883 85.7561 183.526 86.4158C183.181 87.065 183.008 87.819 183.008 88.6777C183.008 89.5363 183.181 90.2903 183.526 90.9395C183.883 91.5888 184.364 92.0914 184.972 92.4475C185.589 92.793 186.281 92.9658 187.045 92.9658C188.113 92.9658 188.993 92.6464 189.684 92.0077C190.375 91.3689 190.778 90.505 190.893 89.4159H186.527V88.2536H192.417V89.3531C192.333 90.2537 192.05 91.0809 191.569 91.8349C191.087 92.5784 190.454 93.17 189.668 93.6098C188.883 94.0392 188.008 94.2538 187.045 94.2538C186.029 94.2538 185.102 94.0182 184.265 93.547C183.427 93.0653 182.762 92.4004 182.27 91.5521C181.788 90.7039 181.547 89.7458 181.547 88.6777C181.547 87.6095 181.788 86.6514 182.27 85.8032C182.762 84.9445 183.427 84.2795 184.265 83.8083C185.102 83.3266 186.029 83.0858 187.045 83.0858C188.207 83.0858 189.234 83.3737 190.124 83.9497C191.024 84.5256 191.679 85.3372 192.087 86.3844H190.375Z" fill="#004B92"/>
<path d="M201.966 94.2695C201.243 94.2695 200.594 94.1439 200.018 93.8926C199.453 93.6308 199.008 93.2747 198.683 92.8245C198.358 92.3637 198.191 91.8349 198.18 91.238H199.704C199.756 91.7511 199.966 92.1857 200.332 92.5417C200.709 92.8873 201.254 93.0601 201.966 93.0601C202.647 93.0601 203.181 92.8925 203.568 92.5574C203.966 92.2119 204.165 91.772 204.165 91.238C204.165 90.8191 204.05 90.4788 203.819 90.217C203.589 89.9552 203.301 89.7562 202.956 89.6201C202.61 89.484 202.144 89.3374 201.558 89.1803C200.835 88.9918 200.254 88.8033 199.814 88.6148C199.385 88.4263 199.013 88.1331 198.699 87.7352C198.395 87.3268 198.243 86.7823 198.243 86.1016C198.243 85.5047 198.395 84.9759 198.699 84.5152C199.002 84.0544 199.427 83.6984 199.971 83.447C200.526 83.1957 201.16 83.0701 201.872 83.0701C202.898 83.0701 203.736 83.3266 204.385 83.8397C205.045 84.3529 205.416 85.0335 205.5 85.8817H203.929C203.877 85.4629 203.657 85.0963 203.27 84.7822C202.882 84.4576 202.369 84.2953 201.73 84.2953C201.133 84.2953 200.646 84.4523 200.27 84.7665C199.893 85.0702 199.704 85.4995 199.704 86.0545C199.704 86.4524 199.814 86.777 200.034 87.0284C200.264 87.2797 200.542 87.4734 200.866 87.6095C201.201 87.7352 201.667 87.8818 202.264 88.0494C202.987 88.2483 203.568 88.4473 204.008 88.6462C204.448 88.8347 204.825 89.1332 205.139 89.5416C205.453 89.9395 205.61 90.484 205.61 91.1752C205.61 91.7092 205.469 92.2119 205.186 92.6831C204.903 93.1543 204.484 93.5365 203.929 93.8297C203.374 94.1229 202.72 94.2695 201.966 94.2695Z" fill="#004B92"/>
<path d="M212.677 94.2695C211.661 94.2695 210.735 94.0339 209.897 93.5627C209.059 93.081 208.394 92.4161 207.902 91.5679C207.42 90.7092 207.179 89.7458 207.179 88.6777C207.179 87.6095 207.42 86.6514 207.902 85.8032C208.394 84.9445 209.059 84.2795 209.897 83.8083C210.735 83.3266 211.661 83.0858 212.677 83.0858C213.703 83.0858 214.635 83.3266 215.473 83.8083C216.311 84.2795 216.971 84.9393 217.452 85.7875C217.934 86.6357 218.175 87.5991 218.175 88.6777C218.175 89.7562 217.934 90.7196 217.452 91.5679C216.971 92.4161 216.311 93.081 215.473 93.5627C214.635 94.0339 213.703 94.2695 212.677 94.2695ZM212.677 93.0287C213.442 93.0287 214.127 92.8506 214.735 92.4946C215.353 92.1386 215.834 91.6307 216.18 90.971C216.536 90.3112 216.714 89.5468 216.714 88.6777C216.714 87.798 216.536 87.0336 216.18 86.3844C215.834 85.7246 215.358 85.2168 214.751 84.8607C214.143 84.5047 213.452 84.3267 212.677 84.3267C211.902 84.3267 211.211 84.5047 210.604 84.8607C209.996 85.2168 209.515 85.7246 209.159 86.3844C208.813 87.0336 208.64 87.798 208.64 88.6777C208.64 89.5468 208.813 90.3112 209.159 90.971C209.515 91.6307 209.996 92.1386 210.604 92.4946C211.222 92.8506 211.913 93.0287 212.677 93.0287Z" fill="#004B92"/>
<path d="M221.491 92.9972H225.324V94.1596H220.062V83.2114H221.491V92.9972Z" fill="#004B92"/>
<path d="M228.24 83.2114V90.1385C228.24 91.1123 228.475 91.8349 228.947 92.3061C229.428 92.7773 230.093 93.0129 230.941 93.0129C231.779 93.0129 232.434 92.7773 232.905 92.3061C233.387 91.8349 233.627 91.1123 233.627 90.1385V83.2114H235.057V90.1228C235.057 91.0338 234.874 91.8035 234.507 92.4318C234.141 93.0496 233.643 93.5104 233.015 93.814C232.397 94.1177 231.701 94.2695 230.926 94.2695C230.151 94.2695 229.449 94.1177 228.821 93.814C228.203 93.5104 227.711 93.0496 227.344 92.4318C226.988 91.8035 226.81 91.0338 226.81 90.1228V83.2114H228.24Z" fill="#004B92"/>
<path d="M244.18 83.2114V84.3738H241.195V94.1596H239.766V84.3738H236.766V83.2114H244.18Z" fill="#004B92"/>
<path d="M247.369 83.2114V94.1596H245.939V83.2114H247.369Z" fill="#004B92"/>
<path d="M254.768 94.2695C253.753 94.2695 252.826 94.0339 251.988 93.5627C251.15 93.081 250.486 92.4161 249.993 91.5679C249.512 90.7092 249.271 89.7458 249.271 88.6777C249.271 87.6095 249.512 86.6514 249.993 85.8032C250.486 84.9445 251.15 84.2795 251.988 83.8083C252.826 83.3266 253.753 83.0858 254.768 83.0858C255.795 83.0858 256.727 83.3266 257.564 83.8083C258.402 84.2795 259.062 84.9393 259.544 85.7875C260.025 86.6357 260.266 87.5991 260.266 88.6777C260.266 89.7562 260.025 90.7196 259.544 91.5679C259.062 92.4161 258.402 93.081 257.564 93.5627C256.727 94.0339 255.795 94.2695 254.768 94.2695ZM254.768 93.0287C255.533 93.0287 256.219 92.8506 256.826 92.4946C257.444 92.1386 257.926 91.6307 258.271 90.971C258.627 90.3112 258.805 89.5468 258.805 88.6777C258.805 87.798 258.627 87.0336 258.271 86.3844C257.926 85.7246 257.449 85.2168 256.842 84.8607C256.234 84.5047 255.543 84.3267 254.768 84.3267C253.994 84.3267 253.302 84.5047 252.695 84.8607C252.088 85.2168 251.606 85.7246 251.25 86.3844C250.904 87.0336 250.732 87.798 250.732 88.6777C250.732 89.5468 250.904 90.3112 251.25 90.971C251.606 91.6307 252.088 92.1386 252.695 92.4946C253.313 92.8506 254.004 93.0287 254.768 93.0287Z" fill="#004B92"/>
<path d="M270.761 94.1596H269.331L263.582 85.4419V94.1596H262.153V83.1957H263.582L269.331 91.8977V83.1957H270.761V94.1596Z" fill="#004B92"/>
<path d="M276.669 94.2695C275.946 94.2695 275.297 94.1439 274.721 93.8926C274.156 93.6308 273.711 93.2747 273.386 92.8245C273.061 92.3637 272.894 91.8349 272.883 91.238H274.407C274.459 91.7511 274.669 92.1857 275.035 92.5417C275.412 92.8873 275.957 93.0601 276.669 93.0601C277.349 93.0601 277.884 92.8925 278.271 92.5574C278.669 92.2119 278.868 91.772 278.868 91.238C278.868 90.8191 278.753 90.4788 278.522 90.217C278.292 89.9552 278.004 89.7562 277.658 89.6201C277.313 89.484 276.847 89.3374 276.26 89.1803C275.538 88.9918 274.957 88.8033 274.517 88.6148C274.088 88.4263 273.716 88.1331 273.402 87.7352C273.098 87.3268 272.946 86.7823 272.946 86.1016C272.946 85.5047 273.098 84.9759 273.402 84.5152C273.705 84.0544 274.129 83.6984 274.674 83.447C275.229 83.1957 275.862 83.0701 276.575 83.0701C277.601 83.0701 278.439 83.3266 279.088 83.8397C279.747 84.3529 280.119 85.0335 280.203 85.8817H278.632C278.58 85.4629 278.36 85.0963 277.973 84.7822C277.585 84.4576 277.072 84.2953 276.433 84.2953C275.836 84.2953 275.349 84.4523 274.972 84.7665C274.595 85.0702 274.407 85.4995 274.407 86.0545C274.407 86.4524 274.517 86.777 274.737 87.0284C274.967 87.2797 275.245 87.4734 275.569 87.6095C275.904 87.7352 276.37 87.8818 276.967 88.0494C277.69 88.2483 278.271 88.4473 278.711 88.6462C279.151 88.8347 279.528 89.1332 279.842 89.5416C280.156 89.9395 280.313 90.484 280.313 91.1752C280.313 91.7092 280.172 92.2119 279.889 92.6831C279.606 93.1543 279.187 93.5365 278.632 93.8297C278.077 94.1229 277.423 94.2695 276.669 94.2695Z" fill="#004B92"/>
</svg>
