<svg width="17" height="18" viewBox="0 0 17 18" fill="none" xmlns="http://www.w3.org/2000/svg">
<path d="M0.894737 18C0.657438 18 0.429858 17.9052 0.262063 17.7364C0.0942668 17.5676 0 17.3387 0 17.1V0.9C0 0.661305 0.0942668 0.432387 0.262063 0.263604C0.429858 0.0948211 0.657438 0 0.894737 0H13.4211C13.6584 0 13.8859 0.0948211 14.0537 0.263604C14.2215 0.432387 14.3158 0.661305 14.3158 0.9V3.6H12.5263V1.8H1.78947V16.2H12.5263V14.4H14.3158V17.1C14.3158 17.3387 14.2215 17.5676 14.0537 17.7364C13.8859 17.9052 13.6584 18 13.4211 18H0.894737ZM12.5263 12.6V9.9H6.26316V8.1H12.5263V5.4L17 9L12.5263 12.6Z" fill="#DA5353"/>
</svg>
