<svg width="20" height="19" viewBox="0 0 20 19" fill="none" xmlns="http://www.w3.org/2000/svg">
<path d="M15.4545 5.42857H20V7.2381H15.4545V5.42857ZM13.6364 9.95238H20V11.7619H13.6364V9.95238ZM16.3636 14.4762H20V16.2857H16.3636V14.4762ZM0 19C0 17.0803 0.766232 15.2393 2.13013 13.8819C3.49403 12.5245 5.34388 11.7619 7.27273 11.7619C9.20158 11.7619 11.0514 12.5245 12.4153 13.8819C13.7792 15.2393 14.5455 17.0803 14.5455 19H12.7273C12.7273 17.5603 12.1526 16.1795 11.1297 15.1614C10.1067 14.1434 8.71936 13.5714 7.27273 13.5714C5.82609 13.5714 4.43871 14.1434 3.41578 15.1614C2.39286 16.1795 1.81818 17.5603 1.81818 19H0ZM7.27273 10.8571C4.25909 10.8571 1.81818 8.42786 1.81818 5.42857C1.81818 2.42929 4.25909 0 7.27273 0C10.2864 0 12.7273 2.42929 12.7273 5.42857C12.7273 8.42786 10.2864 10.8571 7.27273 10.8571ZM7.27273 9.04762C9.28182 9.04762 10.9091 7.4281 10.9091 5.42857C10.9091 3.42905 9.28182 1.80952 7.27273 1.80952C5.26364 1.80952 3.63636 3.42905 3.63636 5.42857C3.63636 7.4281 5.26364 9.04762 7.27273 9.04762Z" fill="#1193F2"/>
</svg>
