<?xml version="1.0" encoding="utf-8"?>
<!-- Generator: Adobe Illustrator 23.0.1, SVG Export Plug-In . SVG Version: 6.00 Build 0)  -->
<svg version="1.1" id="Camada_1" xmlns="http://www.w3.org/2000/svg" xmlns:xlink="http://www.w3.org/1999/xlink" x="0px" y="0px"
	 viewBox="0 0 247.1 149.2" style="enable-background:new 0 0 247.1 149.2;" xml:space="preserve">
<style type="text/css">
	.st0{fill:#1193F2;}
</style>
<path class="st0" d="M226.1,46.6c4.3-2.8,8.5-4.2,12.8-4.3c3.9-0.1,3.9-3.4,3.9-4.5c-0.1-8-0.1-18.6,0-29.2c0-1.1-0.1-2.5-1.1-3.5
	c-0.9-0.9-2.2-1.1-3.3-1.1c0,0,0,0,0,0c-23.6,0.1-47.6,0.1-70.9,0h-30.9l0,0h-13.1h-13.1l0,0H79.6c-23.2,0-47.3,0-70.9,0
	c0,0,0,0,0,0c-1.1,0-2.4,0.1-3.3,1.1c-1,1-1.1,2.4-1.1,3.5c0.1,10.7,0.1,21.2,0,29.3c0,1.1,0,4.4,3.9,4.5c4.3,0.1,8.5,1.5,12.8,4.3
	c13.8,8.9,18.8,27.4,11.5,43c-4.8,10.3-13,16.3-24.3,17.6c-3.4,0.4-3.8,2.5-3.8,4.5c0.1,6.8,0,13.7,0,20.3c0,2.6,0,5.2,0,7.8
	c0,4.3,0.4,5.3,4.9,5.3h101.2l0,0h13.1h13.1l0,0h101.2c4.5,0,4.9-1,4.9-5.3c0-2.6,0-5.2,0-7.8c0-6.7,0-13.6,0-20.3
	c0-2-0.4-4.1-3.8-4.5c-11.3-1.4-19.5-7.3-24.3-17.6C207.4,74,212.3,55.5,226.1,46.6z"/>
</svg>
