<?xml version="1.0" encoding="utf-8"?>
<!-- Generator: Adobe Illustrator 23.0.1, SVG Export Plug-In . SVG Version: 6.00 Build 0)  -->
<svg version="1.1" id="Camada_1" xmlns="http://www.w3.org/2000/svg" xmlns:xlink="http://www.w3.org/1999/xlink" x="0px" y="0px"
	 viewBox="0 0 489 376" style="enable-background:new 0 0 489 376;" xml:space="preserve">
<path d="M486,0.32H3H0v3v107.35v3.08l3.07-0.08l-0.07-3l0,0l0.07,3c0.38-0.01,0.76-0.02,1.13-0.02c15.97,0,30.62,8.41,41.39,22.41
	c10.76,14,17.51,33.47,17.51,55.09c0,21.63-6.74,41.09-17.51,55.09c-10.76,14-25.42,22.41-41.39,22.41c-0.38,0-0.76,0-1.13-0.01
	l-0.07,3h0l0.07-3L0,268.57v3.07v101.04v3h3h483h3v-3V271.64v-2.93l-2.92-0.07c-31.34-0.78-57.76-34.43-57.76-77.49
	c0-43.05,26.42-76.7,57.76-77.49l2.92-0.07v-2.93V3.32v-3H486z M422.32,191.16c0,43.59,26.21,80.51,60.68,83.32v95.2H6V274.6
	c17.49-0.61,33.1-10.05,44.35-24.69c11.64-15.14,18.75-35.92,18.75-58.75c0-22.83-7.11-43.61-18.75-58.75
	C39.1,117.77,23.49,108.32,6,107.72V6.32h477v101.52C448.52,110.65,422.32,147.57,422.32,191.16z"/>
</svg>
