<?xml version="1.0" encoding="utf-8"?>
<!-- Generator: Adobe Illustrator 23.0.1, SVG Export Plug-In . SVG Version: 6.00 Build 0)  -->
<svg version="1.1" id="Camada_1" xmlns="http://www.w3.org/2000/svg" xmlns:xlink="http://www.w3.org/1999/xlink" x="0px" y="0px"
	 viewBox="0 0 247.09 149.2" style="enable-background:new 0 0 247.09 149.2;" xml:space="preserve">
<style type="text/css">
	.st0{fill:#F17777;}
</style>
<path class="st0" d="M226.1,46.58c4.31-2.77,8.5-4.16,12.82-4.25c3.9-0.09,3.87-3.38,3.87-4.46c-0.06-8.01-0.11-18.58,0.01-29.24
	c0.01-1.12-0.1-2.53-1.06-3.5c-0.92-0.93-2.18-1.06-3.29-1.06c-0.01,0-0.02,0-0.03,0c-23.62,0.05-47.64,0.05-70.87,0.04h-30.91l0,0
	h-13.09h-13.09l0,0H79.55c-23.23,0-47.25,0.01-70.87-0.04c-0.01,0-0.02,0-0.03,0c-1.12,0-2.38,0.13-3.29,1.06
	C4.39,6.1,4.29,7.51,4.3,8.63c0.1,10.67,0.05,21.23,0,29.25c-0.01,1.08-0.03,4.37,3.87,4.46c4.31,0.09,8.51,1.49,12.82,4.25
	c13.83,8.88,18.76,27.38,11.46,43.03c-4.81,10.33-12.99,16.25-24.31,17.61c-3.4,0.41-3.84,2.52-3.83,4.53
	c0.05,6.77,0.04,13.66,0.03,20.33c0,2.59,0,5.18,0,7.77c0,4.27,0.45,5.27,4.91,5.27h101.21l0,0h13.09h13.09l0,0h101.21
	c4.46,0,4.91-1,4.91-5.27c0-2.59,0-5.18,0-7.77c-0.01-6.66-0.01-13.55,0.03-20.33c0.01-2.01-0.43-4.13-3.83-4.53
	c-11.32-1.36-19.5-7.29-24.31-17.61C207.35,73.96,212.27,55.46,226.1,46.58z M211.8,90.94c5.3,11.37,14.31,17.9,26.78,19.4
	c0.78,0.09,0.93,0.24,0.94,0.24c0.01,0.01,0.14,0.19,0.14,1.16c-0.05,6.79-0.04,13.68-0.03,20.35c0,2.59,0,5.18,0,7.77
	c0,0.82,0,1.66-0.06,2.09c-0.38,0.04-1.09,0.04-1.72,0.04h-114.3H9.25c-0.64,0-1.34,0-1.72-0.04c-0.06-0.43-0.06-1.27-0.06-2.09
	c0-2.59,0-5.18,0-7.77c0.01-6.67,0.01-13.56-0.03-20.35c-0.01-0.97,0.13-1.15,0.14-1.16c0,0,0.15-0.15,0.94-0.24
	c12.47-1.5,21.48-8.02,26.78-19.4c7.96-17.07,2.54-37.27-12.61-46.99c-4.74-3.04-9.6-4.64-14.44-4.75c-0.52-0.01-0.66-0.1-0.65-0.1
	c-0.01-0.02-0.16-0.24-0.15-1.2c0.06-8.03,0.11-18.61-0.01-29.3C7.4,7.57,7.57,7.34,7.56,7.34l0,0C7.58,7.33,7.78,7.2,8.64,7.2
	c0.01,0,0.01,0,0.02,0c23.63,0.05,47.65,0.05,70.88,0.04h44h44c23.23,0,47.25,0.01,70.88-0.04c0.01,0,0.01,0,0.02,0
	c0.86,0,1.06,0.12,1.08,0.14l0,0c0,0,0.16,0.23,0.15,1.26c-0.12,10.69-0.07,21.27-0.01,29.3c0.01,0.97-0.14,1.19-0.15,1.2
	c0,0-0.13,0.09-0.65,0.1c-4.84,0.11-9.7,1.7-14.44,4.75C209.27,53.67,203.85,73.87,211.8,90.94z"/>
</svg>
