<svg width="48" height="48" viewBox="0 0 48 48" fill="none" xmlns="http://www.w3.org/2000/svg">
<path d="M16.703 6.38498L22.4433 0.64468C22.8562 0.231892 23.4161 0 24 0C24.5839 0 25.1438 0.231892 25.5567 0.64468L31.297 6.38498H39.4131C39.9971 6.38498 40.5572 6.61696 40.9701 7.02989C41.383 7.44282 41.615 8.00288 41.615 8.58685V16.703L47.3553 22.4433C47.7681 22.8562 48 23.4161 48 24C48 24.5839 47.7681 25.1438 47.3553 25.5567L41.615 31.297V39.4131C41.615 39.9971 41.383 40.5572 40.9701 40.9701C40.5572 41.383 39.9971 41.615 39.4131 41.615H31.297L25.5567 47.3553C25.1438 47.7681 24.5839 48 24 48C23.4161 48 22.8562 47.7681 22.4433 47.3553L16.703 41.615H8.58685C8.00288 41.615 7.44282 41.383 7.02989 40.9701C6.61696 40.5572 6.38498 39.9971 6.38498 39.4131V31.297L0.64468 25.5567C0.231892 25.1438 0 24.5839 0 24C0 23.4161 0.231892 22.8562 0.64468 22.4433L6.38498 16.703V8.58685C6.38498 8.00288 6.61696 7.44282 7.02989 7.02989C7.44282 6.61696 8.00288 6.38498 8.58685 6.38498H16.703ZM10.7887 10.7887V18.5283L5.31707 24L10.7887 29.4717V37.2113H18.5283L24 42.6829L29.4717 37.2113H37.2113V29.4717L42.6829 24L37.2113 18.5283V10.7887H29.4717L24 5.31707L18.5283 10.7887H10.7887ZM24 32.8075C21.6641 32.8075 19.4239 31.8796 17.7722 30.2279C16.1204 28.5761 15.1925 26.3359 15.1925 24C15.1925 21.6641 16.1204 19.4239 17.7722 17.7722C19.4239 16.1204 21.6641 15.1925 24 15.1925C26.3359 15.1925 28.5761 16.1204 30.2279 17.7722C31.8796 19.4239 32.8075 21.6641 32.8075 24C32.8075 26.3359 31.8796 28.5761 30.2279 30.2279C28.5761 31.8796 26.3359 32.8075 24 32.8075ZM24 28.4038C25.1679 28.4038 26.2881 27.9398 27.1139 27.1139C27.9398 26.2881 28.4038 25.1679 28.4038 24C28.4038 22.8321 27.9398 21.7119 27.1139 20.8861C26.2881 20.0602 25.1679 19.5962 24 19.5962C22.8321 19.5962 21.7119 20.0602 20.8861 20.8861C20.0602 21.7119 19.5962 22.8321 19.5962 24C19.5962 25.1679 20.0602 26.2881 20.8861 27.1139C21.7119 27.9398 22.8321 28.4038 24 28.4038Z" fill="#1193F2"/>
</svg>
