<svg width="33" height="42" viewBox="0 0 33 42" fill="none" xmlns="http://www.w3.org/2000/svg">
<path d="M23.8823 21L5.69034 9.16732V32.8327L23.8823 21ZM32.3666 22.1547L2.2107 41.7676C1.99647 41.9066 1.74759 41.9864 1.49056 41.9984C1.23353 42.0104 0.977977 41.9542 0.751122 41.8357C0.524266 41.7172 0.334602 41.5409 0.20233 41.3256C0.0700582 41.1102 0.000132927 40.8639 0 40.6129V1.38712C0.000132927 1.13608 0.0700582 0.88978 0.20233 0.674447C0.334602 0.459114 0.524266 0.282813 0.751122 0.164323C0.977977 0.045833 1.23353 -0.0104098 1.49056 0.00158555C1.74759 0.0135809 1.99647 0.0933656 2.2107 0.23244L32.3666 19.8453C32.5615 19.9721 32.7212 20.1438 32.8317 20.3452C32.9422 20.5466 33 20.7715 33 21C33 21.2285 32.9422 21.4534 32.8317 21.6548C32.7212 21.8562 32.5615 22.0279 32.3666 22.1547Z" fill="#1193F2"/>
</svg>
