<svg width="24" height="22" viewBox="0 0 24 22" fill="none" xmlns="http://www.w3.org/2000/svg">
<path d="M0 7.94444V1.22222C0 0.898069 0.126428 0.587192 0.351472 0.357981C0.576515 0.128769 0.88174 0 1.2 0H22.8C23.1183 0 23.4235 0.128769 23.6485 0.357981C23.8736 0.587192 24 0.898069 24 1.22222V7.94444C23.2044 7.94444 22.4413 8.26637 21.8787 8.8394C21.3161 9.41242 21 10.1896 21 11C21 11.8104 21.3161 12.5876 21.8787 13.1606C22.4413 13.7336 23.2044 14.0556 24 14.0556V20.7778C24 21.1019 23.8736 21.4128 23.6485 21.642C23.4235 21.8712 23.1183 22 22.8 22H1.2C0.88174 22 0.576515 21.8712 0.351472 21.642C0.126428 21.4128 0 21.1019 0 20.7778V14.0556C0.79565 14.0556 1.55871 13.7336 2.12132 13.1606C2.68393 12.5876 3 11.8104 3 11C3 10.1896 2.68393 9.41242 2.12132 8.8394C1.55871 8.26637 0.79565 7.94444 0 7.94444ZM14.4 2.44444H2.4V6.072C3.30145 6.52703 4.06017 7.22951 4.59061 8.10023C5.12104 8.97095 5.40211 9.97529 5.40211 11C5.40211 12.0247 5.12104 13.0291 4.59061 13.8998C4.06017 14.7705 3.30145 15.473 2.4 15.928V19.5556H14.4V2.44444ZM16.8 2.44444V19.5556H21.6V15.928C20.6986 15.473 19.9398 14.7705 19.4094 13.8998C18.879 13.0291 18.5979 12.0247 18.5979 11C18.5979 9.97529 18.879 8.97095 19.4094 8.10023C19.9398 7.22951 20.6986 6.52703 21.6 6.072V2.44444H16.8Z" fill="#1193F2"/>
</svg>
