<svg width="31" height="36" viewBox="0 0 31 36" fill="none" xmlns="http://www.w3.org/2000/svg">
<path d="M5.82456 8.51697C8.56934 6.32783 11.9829 5.13751 15.5 5.1431C19.1597 5.1431 22.5232 6.40487 25.1754 8.51697L27.6778 6.02599L30.1131 8.45011L27.6107 10.9411C29.4323 13.2112 30.573 15.9471 30.9015 18.834C31.23 21.7209 30.733 24.6415 29.4677 27.2597C28.2024 29.8778 26.2201 32.0872 23.7491 33.6334C21.2781 35.1797 18.4187 36 15.5 36C12.5813 36 9.72191 35.1797 7.25089 33.6334C4.77986 32.0872 2.79763 29.8778 1.53231 27.2597C0.26698 24.6415 -0.230016 21.7209 0.0985116 18.834C0.427039 15.9471 1.56774 13.2112 3.38934 10.9411L0.886953 8.45182L3.32217 6.02771L5.82456 8.51697ZM15.5 32.5729C17.0832 32.5729 18.6508 32.2625 20.1135 31.6595C21.5761 31.0564 22.9051 30.1724 24.0246 29.0581C25.144 27.9437 26.032 26.6208 26.6379 25.1648C27.2437 23.7088 27.5555 22.1483 27.5555 20.5724C27.5555 18.9964 27.2437 17.4359 26.6379 15.98C26.032 14.524 25.144 13.2011 24.0246 12.0867C22.9051 10.9724 21.5761 10.0884 20.1135 9.48531C18.6508 8.88223 17.0832 8.57183 15.5 8.57183C12.3027 8.57183 9.23629 9.83617 6.97544 12.0867C4.71459 14.3372 3.44445 17.3896 3.44445 20.5724C3.44445 23.7551 4.71459 26.8075 6.97544 29.0581C9.23629 31.3086 12.3027 32.5729 15.5 32.5729ZM8.61112 0H22.3889V3.42873H8.61112V0Z" fill="#1193F2"/>
</svg>
