<svg width="44" height="48" viewBox="0 0 44 48" fill="none" xmlns="http://www.w3.org/2000/svg">
<path d="M17.039 43.08C7.2776 40.848 0 32.1753 0 21.8182C0 9.768 9.8494 0 22 0C34.1506 0 44 9.768 44 21.8182C44 32.1753 36.7224 40.848 26.961 43.08L22 48L17.039 43.08ZM11.0264 35.4698C13.0764 37.0957 15.4689 38.2433 18.0268 38.8276L19.2588 39.1091L22 41.8298L24.7434 39.1091L25.9754 38.8255C28.7003 38.2025 31.2351 36.9411 33.3674 35.1469C31.9348 33.6885 30.2218 32.5298 28.3297 31.7395C26.4377 30.9491 24.405 30.5431 22.352 30.5455C17.8728 30.5455 13.838 32.4436 11.0264 35.4698ZM7.9552 32.3345C9.8042 30.3885 12.0355 28.8387 14.5115 27.7805C16.9875 26.7223 19.6559 26.1782 22.352 26.1818C24.9516 26.1785 27.5263 26.6844 29.9282 27.6707C32.3302 28.6569 34.512 30.1039 36.3484 31.9287C38.2318 29.2999 39.344 26.205 39.5616 22.9874C39.7793 19.7699 39.0939 16.5554 37.5815 13.7006C36.0691 10.8459 33.7887 8.46245 30.9935 6.81479C28.1983 5.16713 24.9975 4.31965 21.7461 4.36637C18.4948 4.41309 15.3201 5.35218 12.5741 7.07947C9.82824 8.80675 7.61851 11.2547 6.19012 14.1517C4.76173 17.0487 4.17053 20.2816 4.48209 23.4915C4.79366 26.7015 5.99582 29.7631 7.9552 32.3367V32.3345ZM22 24C19.6661 24 17.4278 23.0805 15.7775 21.4438C14.1271 19.8072 13.2 17.5873 13.2 15.2727C13.2 12.9581 14.1271 10.7383 15.7775 9.10161C17.4278 7.46493 19.6661 6.54545 22 6.54545C24.3339 6.54545 26.5722 7.46493 28.2225 9.10161C29.8729 10.7383 30.8 12.9581 30.8 15.2727C30.8 17.5873 29.8729 19.8072 28.2225 21.4438C26.5722 23.0805 24.3339 24 22 24ZM22 19.6364C23.167 19.6364 24.2861 19.1766 25.1113 18.3583C25.9364 17.5399 26.4 16.43 26.4 15.2727C26.4 14.1154 25.9364 13.0055 25.1113 12.1872C24.2861 11.3688 23.167 10.9091 22 10.9091C20.833 10.9091 19.7139 11.3688 18.8887 12.1872C18.0636 13.0055 17.6 14.1154 17.6 15.2727C17.6 16.43 18.0636 17.5399 18.8887 18.3583C19.7139 19.1766 20.833 19.6364 22 19.6364Z" fill="#1193F2"/>
</svg>
