<svg width="43" height="43" viewBox="0 0 43 43" fill="none" xmlns="http://www.w3.org/2000/svg">
<path d="M21.5 19.35C24.3511 19.35 27.0854 20.4826 29.1014 22.4986C31.1174 24.5146 32.25 27.2489 32.25 30.1V43H27.95V30.1C27.9501 28.4548 27.3215 26.8717 26.1928 25.6747C25.0642 24.4777 23.5208 23.7573 21.8784 23.6608L21.5 23.65C19.8548 23.6499 18.2717 24.2785 17.0747 25.4072C15.8777 26.5358 15.1573 28.0792 15.0608 29.7216L15.05 30.1V43H10.75V30.1C10.75 27.2489 11.8826 24.5146 13.8986 22.4986C15.9146 20.4826 18.6489 19.35 21.5 19.35ZM7.525 25.8C8.12485 25.8 8.7075 25.871 9.2665 26.0021C8.8989 27.0965 8.68121 28.2356 8.61935 29.3884L8.6 30.1V30.2849C8.35287 30.1965 8.09581 30.1387 7.8346 30.1129L7.525 30.1C6.7233 30.1 5.95036 30.3987 5.3569 30.9377C4.76344 31.4767 4.39201 32.2174 4.31505 33.0154L4.3 33.325V43H0V33.325C0 31.3292 0.79281 29.4152 2.20402 28.004C3.61523 26.5928 5.52925 25.8 7.525 25.8ZM35.475 25.8C37.4708 25.8 39.3848 26.5928 40.796 28.004C42.2072 29.4152 43 31.3292 43 33.325V43H38.7V33.325C38.7 32.5233 38.4013 31.7504 37.8623 31.1569C37.3233 30.5634 36.5826 30.192 35.7846 30.1151L35.475 30.1C35.0988 30.1 34.7376 30.1645 34.4 30.2827V30.1C34.4 28.6681 34.1678 27.2921 33.7357 26.0064C34.2925 25.871 34.8752 25.8 35.475 25.8ZM7.525 12.9C8.95054 12.9 10.3177 13.4663 11.3257 14.4743C12.3337 15.4823 12.9 16.8495 12.9 18.275C12.9 19.7005 12.3337 21.0677 11.3257 22.0757C10.3177 23.0837 8.95054 23.65 7.525 23.65C6.09946 23.65 4.73231 23.0837 3.7243 22.0757C2.71629 21.0677 2.15 19.7005 2.15 18.275C2.15 16.8495 2.71629 15.4823 3.7243 14.4743C4.73231 13.4663 6.09946 12.9 7.525 12.9ZM35.475 12.9C36.9005 12.9 38.2677 13.4663 39.2757 14.4743C40.2837 15.4823 40.85 16.8495 40.85 18.275C40.85 19.7005 40.2837 21.0677 39.2757 22.0757C38.2677 23.0837 36.9005 23.65 35.475 23.65C34.0495 23.65 32.6823 23.0837 31.6743 22.0757C30.6663 21.0677 30.1 19.7005 30.1 18.275C30.1 16.8495 30.6663 15.4823 31.6743 14.4743C32.6823 13.4663 34.0495 12.9 35.475 12.9ZM7.525 17.2C7.23989 17.2 6.96646 17.3133 6.76486 17.5149C6.56326 17.7165 6.45 17.9899 6.45 18.275C6.45 18.5601 6.56326 18.8335 6.76486 19.0351C6.96646 19.2367 7.23989 19.35 7.525 19.35C7.81011 19.35 8.08354 19.2367 8.28514 19.0351C8.48674 18.8335 8.6 18.5601 8.6 18.275C8.6 17.9899 8.48674 17.7165 8.28514 17.5149C8.08354 17.3133 7.81011 17.2 7.525 17.2ZM35.475 17.2C35.1899 17.2 34.9165 17.3133 34.7149 17.5149C34.5133 17.7165 34.4 17.9899 34.4 18.275C34.4 18.5601 34.5133 18.8335 34.7149 19.0351C34.9165 19.2367 35.1899 19.35 35.475 19.35C35.7601 19.35 36.0335 19.2367 36.2351 19.0351C36.4367 18.8335 36.55 18.5601 36.55 18.275C36.55 17.9899 36.4367 17.7165 36.2351 17.5149C36.0335 17.3133 35.7601 17.2 35.475 17.2ZM21.5 0C23.7809 0 25.9683 0.906069 27.5811 2.51888C29.1939 4.13169 30.1 6.31914 30.1 8.6C30.1 10.8809 29.1939 13.0683 27.5811 14.6811C25.9683 16.2939 23.7809 17.2 21.5 17.2C19.2191 17.2 17.0317 16.2939 15.4189 14.6811C13.8061 13.0683 12.9 10.8809 12.9 8.6C12.9 6.31914 13.8061 4.13169 15.4189 2.51888C17.0317 0.906069 19.2191 0 21.5 0ZM21.5 4.3C20.3596 4.3 19.2658 4.75303 18.4594 5.55944C17.653 6.36585 17.2 7.45957 17.2 8.6C17.2 9.74043 17.653 10.8342 18.4594 11.6406C19.2658 12.447 20.3596 12.9 21.5 12.9C22.6404 12.9 23.7342 12.447 24.5406 11.6406C25.347 10.8342 25.8 9.74043 25.8 8.6C25.8 7.45957 25.347 6.36585 24.5406 5.55944C23.7342 4.75303 22.6404 4.3 21.5 4.3Z" fill="#1193F2"/>
</svg>
